<svg xmlns="http://www.w3.org/2000/svg" xmlns:svg="http://www.w3.org/2000/svg" id="svg1" width="475.453" height="628.407" version="1.1" viewBox="0 0 125.797 166.266" xml:space="preserve"><g id="layer1" transform="translate(-41.620475,-64.027978)"><path id="path2" style="fill:#9bf316;fill-opacity:1;stroke-width:.865487" d="m 104.52059,64.027974 c 0,0 -12.300998,16.684095 -17.163248,24.964306 -4.8623,8.28022 -7.86765,12.84754 -10.59501,26.3339 -2.72736,13.48636 -1.27406,42.21319 -1.27406,42.21319 l -18.58752,20.04004 -15.280273,49.9615 40.422833,-6.79427 a 22.714797,11.567473 0 0 0 22.320548,9.54731 22.714797,11.567473 0 0 0 22.32712,-9.55945 l 40.72649,6.84277 -15.28027,-49.95979 -18.58916,-20.04001 c 0,0 1.45496,-28.72857 -1.2724,-42.21493 -2.72736,-13.48636 -5.73437,-18.05368 -10.59667,-26.3339 -4.8608,-8.277646 -17.14905,-24.947062 -17.15668,-24.957378 z m -0.0151,14.741718 c 0.52421,0.860497 14.76063,18.300498 18.34492,32.586238 3.65093,14.55125 3.25036,30.16797 2.29067,46.75483 -0.68395,11.82081 -5.48912,37.13724 -8.2384,50.97445 a 22.714797,11.567473 0 0 0 -12.54073,-1.9254 22.714797,11.567473 0 0 0 -12.237098,1.84921 c -2.75047,-13.84452 -7.55003,-39.12307 -8.23343,-50.93462 -0.95969,-16.58687 -1.36026,-32.20531 2.29067,-46.75656 3.57561,-14.25109 17.733538,-31.579359 18.323398,-32.548148 z m -27.999198,95.069708 6.36686,35.53319 -30.30472,9.08328 10.94985,-35.7998 z m 56.021568,0.0351 12.988,8.81667 10.9482,35.80155 -30.30311,-9.08504 z"/></g></svg>